<svg id="Layer_1" data-name="Layer 1" xmlns="http://www.w3.org/2000/svg" viewBox="0 0 302.99 94"><defs><style>.background{fill:#cd2127;}.letter{fill:#fff;}</style></defs><path class="background" d="M26.37,1,1.46,94H278.08L303,1Z"/><polygon class="letter" points="230.96 37 219.34 37 217.88 42 226.75 42 224.47 51 215.6 51 213.83 58 225.94 58 223.66 65 202.18 65 212.25 30 233.24 30 230.96 37"/><path class="letter" d="M204.5,32.56c-1.74-2.27-4.89-2.56-9.36-2.56H184.45L174.38,65h9.37l3.82-14h1.07l2,14h9.81L198,49.52a12,12,0,0,0,7.48-8.61C206.43,37.25,206.11,34.66,204.5,32.56Zm-9.21,7.3c-.71,2.65-2.23,4.14-4.79,4.14h-1.75l1.9-7h3.82s0-.23-.07-.24l-.5-.13c.2,0,.36.17.5.19l.38.18h-.3a.83.83,0,0,1,.76.43C195.59,37.89,195.6,38.66,195.28,39.86Z"/><path class="letter" d="M159.85,66.32c-4.14,0-7.1-1.11-8.78-3.31s-2-4.43-.92-8.41L157,30h9.37l-7,25.23c-.36,1.35-.36,1.93,0,2.41s1.34.4,2.07.4c2.59,0,4.09-.51,4.86-3.37L173.1,30h9.38l-7,25.28c-2.06,7.68-7.61,11-15.62,11"/><polygon class="letter" points="137.44 65 128.07 65 135.85 37 128.06 37 130.34 30 155.31 30 153.03 37 145.23 37 137.44 65"/><path class="letter" d="M106,66.32c-4.14,0-7.1-1.11-8.78-3.31s-2-4.43-.92-8.41L103.17,30h9.37l-7,25.23c-.36,1.35-.36,1.93,0,2.41s1.34.4,2.07.4c2.59,0,4.09-.51,4.86-3.37L119.29,30h9.37l-7,25.28c-2.06,7.68-7.61,11-15.62,11"/><polygon class="letter" points="93.06 51 84.63 51 80.58 65 71.21 65 81.27 30 101.4 30 99.12 37 88.37 37 86.91 42 95.34 42 93.06 51"/></svg>